<?xml version="1.0" standalone="no"?>
<!DOCTYPE svg PUBLIC "-//W3C//DTD SVG 20010904//EN"
 "http://www.w3.org/TR/2001/REC-SVG-20010904/DTD/svg10.dtd">
<svg version="1.0" xmlns="http://www.w3.org/2000/svg"
 width="635.000000pt" height="635.000000pt" viewBox="0 0 635.000000 635.000000"
 preserveAspectRatio="xMidYMid meet">

<g transform="translate(0.000000,635.000000) scale(0.100000,-0.100000)"
fill="#000000" stroke="none">
<path d="M1330 6128 c0 -342 -17 -658 -40 -757 -18 -73 -78 -207 -113 -251 -6
-9 -38 -31 -70 -49 -43 -23 -66 -31 -86 -26 -68 15 -123 -54 -127 -160 -2 -41
-7 -53 -31 -72 -68 -55 -303 -183 -776 -423 -78 -40 -87 -47 -87 -72 l0 -28
198 102 c401 206 536 279 633 343 85 55 99 62 99 44 0 -11 -11 -30 -25 -42
-26 -23 -31 -48 -27 -135 2 -34 9 -50 37 -79 42 -43 43 -56 10 -95 -28 -33
-31 -61 -14 -138 8 -39 18 -56 45 -76 37 -29 43 -57 19 -88 -18 -24 -19 -107
-1 -156 7 -19 26 -44 43 -55 38 -24 50 -61 28 -84 -20 -23 -19 -93 3 -151 12
-32 26 -49 49 -60 36 -17 53 -61 33 -85 -17 -20 -8 -99 16 -150 13 -27 31 -46
57 -58 25 -12 37 -24 37 -38 0 -18 -4 -20 -32 -15 -18 3 -136 17 -263 31 -363
40 -526 63 -737 102 -183 34 -227 37 -202 14 10 -10 329 -73 484 -96 119 -17
683 -85 710 -85 13 0 19 -11 23 -40 8 -65 47 -133 86 -152 48 -24 56 -42 40
-90 -12 -38 -11 -43 20 -105 32 -61 71 -96 97 -86 20 7 37 -50 24 -79 -10 -21
-9 -33 7 -69 29 -64 70 -109 100 -109 35 0 63 -37 53 -71 -17 -57 69 -183 121
-177 41 4 69 -26 62 -67 -10 -65 77 -165 144 -165 49 0 74 -23 66 -62 -5 -26
1 -36 52 -84 51 -48 61 -54 100 -54 61 0 75 -8 75 -40 0 -37 37 -80 93 -108
37 -19 55 -22 96 -16 l50 6 10 -40 c12 -45 33 -61 109 -88 50 -18 53 -18 85
-1 40 22 61 15 77 -23 14 -34 57 -56 126 -65 44 -6 54 -4 80 17 33 29 48 26
86 -14 24 -26 32 -28 98 -28 66 0 74 2 98 28 40 42 63 47 84 20 14 -19 26 -23
65 -22 75 2 126 24 143 61 19 40 39 48 76 28 40 -20 50 -19 120 14 51 24 64
35 73 64 16 48 34 62 61 47 33 -18 79 -4 135 38 37 28 51 45 53 67 5 44 19 55
71 55 42 0 53 5 104 51 50 44 57 55 57 88 0 47 14 61 62 61 65 0 153 96 146
159 -1 15 5 39 14 53 13 20 23 24 46 20 27 -4 35 2 75 53 48 61 57 85 47 125
-9 34 14 68 45 67 39 0 68 26 99 87 26 51 28 61 18 94 -14 44 5 82 41 82 29 0
60 32 86 90 23 51 26 79 10 113 -15 33 0 58 42 72 26 9 40 24 61 66 15 30 27
70 28 90 l0 36 58 6 c368 36 777 92 1001 138 79 16 146 29 148 29 1 0 3 7 3
16 0 12 -6 15 -22 11 -143 -35 -477 -85 -856 -127 -150 -16 -291 -33 -312 -36
-30 -5 -40 -3 -40 7 0 20 11 32 45 49 57 29 95 153 65 210 -14 27 -2 70 19 70
28 0 58 41 76 102 17 59 14 90 -12 119 -21 24 -7 65 27 79 34 14 56 57 66 128
6 46 4 58 -15 82 -30 41 -27 56 20 98 39 36 40 41 46 112 5 68 3 77 -16 94
-30 28 -29 79 3 94 54 24 62 176 12 218 -15 14 -26 33 -26 48 0 25 1 25 63
-18 95 -66 243 -149 565 -313 286 -147 292 -150 292 -124 0 25 -17 36 -242
151 -275 139 -456 239 -568 310 -72 47 -76 51 -72 82 5 45 -34 145 -64 164
-16 11 -36 14 -61 10 -32 -5 -46 0 -93 32 -82 56 -142 167 -175 321 -17 81
-35 464 -35 743 0 198 -1 208 -19 208 -31 0 -35 -95 -22 -490 19 -597 62 -954
142 -1190 16 -47 27 -74 24 -60 -30 151 -56 309 -70 420 -8 74 -17 149 -20
165 -4 27 -3 28 8 11 7 -10 34 -53 61 -95 26 -42 69 -101 95 -131 26 -30 53
-71 61 -90 7 -19 26 -49 42 -65 34 -37 35 -61 6 -92 -18 -20 -23 -39 -26 -100
-4 -64 -1 -79 17 -104 29 -39 26 -66 -8 -95 -22 -18 -32 -37 -37 -72 -11 -70
-8 -111 10 -131 20 -22 21 -57 0 -73 -43 -36 -54 -50 -64 -88 -17 -63 -16
-118 1 -136 22 -21 12 -63 -18 -77 -49 -22 -90 -156 -64 -206 18 -33 5 -78
-25 -85 -18 -5 -32 -22 -50 -59 -34 -74 -40 -112 -20 -142 13 -20 14 -29 4
-50 -6 -14 -15 -25 -21 -25 -5 0 -21 -8 -35 -18 -16 -11 -64 -24 -117 -31
-230 -33 -458 -75 -566 -106 -199 -57 -361 -152 -469 -273 -62 -69 -66 -91 -6
-29 137 142 333 237 611 297 89 19 462 80 492 80 9 0 8 -11 -3 -42 -12 -35
-13 -50 -3 -79 13 -42 0 -79 -30 -79 -23 0 -53 -33 -81 -89 -17 -34 -21 -55
-17 -90 6 -49 -8 -81 -35 -81 -25 0 -64 -37 -93 -86 -21 -35 -26 -55 -23 -87
5 -43 -16 -92 -34 -81 -36 23 -138 -97 -138 -163 0 -53 -15 -73 -55 -73 -27 0
-43 -9 -75 -42 -51 -53 -73 -93 -65 -119 9 -29 -12 -49 -52 -49 -45 0 -82 -20
-126 -69 -25 -28 -37 -51 -37 -71 0 -36 -22 -49 -72 -42 -32 4 -47 -1 -93 -32
-37 -24 -57 -45 -61 -63 -11 -48 -31 -63 -64 -50 -57 22 -161 -21 -188 -77
-18 -37 -38 -42 -74 -21 -51 30 -164 -1 -186 -50 -15 -32 -48 -32 -80 -2 -20
18 -35 22 -92 22 -57 0 -72 -4 -92 -22 -33 -31 -46 -29 -83 11 -23 25 -45 37
-89 47 -52 11 -61 11 -91 -5 -39 -21 -62 -16 -74 16 -21 54 -98 91 -185 86
-58 -3 -58 -3 -62 26 -6 57 -99 122 -163 113 -52 -7 -71 7 -71 48 0 26 -9 42
-37 71 -47 45 -87 66 -118 62 -29 -4 -64 27 -58 51 7 26 -18 68 -68 119 -32
32 -50 42 -74 42 -42 0 -51 13 -57 76 -8 82 -76 164 -137 164 -24 0 -34 24
-32 77 4 68 -69 173 -120 173 -22 0 -34 33 -31 90 4 65 -42 151 -87 166 -45
15 -55 35 -40 83 9 30 9 47 -1 75 -7 21 -10 39 -7 42 2 3 85 -7 183 -21 497
-70 691 -142 914 -334 49 -43 59 -49 42 -25 -64 92 -226 208 -367 265 -144 57
-400 111 -735 154 -30 4 -76 19 -102 32 -52 27 -57 41 -36 99 9 27 8 42 -13
100 -20 57 -30 72 -56 84 -36 17 -51 56 -34 89 15 28 14 68 -5 130 -11 39 -23
57 -45 69 -38 22 -47 56 -24 94 15 26 16 37 5 96 -10 53 -20 73 -44 97 -45 42
-49 59 -25 100 17 29 20 44 14 87 -10 71 -29 115 -54 123 -28 9 -28 52 2 83
19 21 22 33 20 99 -1 66 -5 79 -27 102 -31 33 -33 66 -5 81 11 7 31 35 44 63
12 29 32 61 44 71 37 34 130 160 167 227 31 58 34 61 30 29 -3 -19 -8 -66 -11
-105 -7 -81 -38 -284 -61 -392 -8 -41 -13 -77 -10 -80 2 -3 14 26 25 64 83
271 131 750 134 1353 l2 305 -22 3 -23 3 0 -223z m-234 -1104 c-21 -18 -54
-38 -72 -44 -35 -12 -43 -25 -21 -33 17 -6 -3 -38 -31 -48 -18 -7 -22 -5 -22
12 0 34 32 78 65 89 16 6 48 24 70 39 53 38 60 28 11 -15z m4230 -16 c11 -10
29 -18 41 -18 14 0 23 -10 31 -39 7 -21 12 -41 12 -45 0 -14 -28 -5 -46 15
-18 20 -18 21 -1 30 21 12 14 29 -11 23 -11 -3 -37 13 -72 46 -54 50 -54 51
-15 29 22 -12 49 -31 61 -41z m-4301 13 c-6 -5 -21 -11 -35 -13 -32 -4 -64
-84 -57 -141 4 -32 3 -36 -9 -26 -28 23 -9 125 33 171 9 10 30 18 47 18 18 0
26 -4 21 -9z m4378 -3 c38 -29 61 -154 33 -177 -12 -10 -13 -6 -9 26 3 24 -2
57 -14 88 -15 41 -23 51 -46 53 -15 2 -27 8 -27 13 0 13 43 11 63 -3z m-72
-104 c6 -24 17 -49 25 -55 8 -6 14 -18 14 -27 0 -30 -40 19 -54 67 -8 25 -18
55 -22 66 -7 18 -6 19 9 6 10 -8 22 -33 28 -57z m-4280 -2 c-10 -36 -49 -98
-57 -90 -2 2 8 26 21 53 14 26 25 56 25 65 0 9 3 20 7 24 13 13 15 -11 4 -52z
m-78 -129 c-3 -51 -10 -93 -14 -93 -15 0 -11 178 4 183 6 2 13 4 13 3 1 0 0
-43 -3 -93z m4431 71 c10 -26 7 -164 -4 -164 -6 0 -10 31 -10 74 0 41 -3 81
-6 90 -3 9 -2 16 4 16 5 0 13 -7 16 -16z m-4481 -151 c-15 -52 -9 -129 10
-151 10 -11 14 -23 9 -26 -5 -3 -17 3 -27 13 -33 37 -29 191 5 191 7 0 8 -10
3 -27z m103 -40 c8 -41 0 -111 -14 -125 -7 -7 -10 12 -9 58 1 38 -2 85 -6 104
-7 33 -7 34 7 16 9 -11 19 -35 22 -53z m4340 30 c-9 -58 -9 -105 -1 -135 10
-38 -9 -36 -25 2 -13 32 -7 118 11 152 15 29 21 21 15 -19z m95 16 c16 -31 7
-145 -14 -166 -24 -24 -30 -11 -11 26 16 32 16 107 0 144 -12 25 11 22 25 -4z
m-31 -72 l0 -54 -30 5 c-23 3 -30 9 -30 27 0 36 11 55 31 55 10 0 19 5 19 10
0 6 2 10 5 10 3 0 5 -24 5 -53z m-4454 33 c12 0 14 -10 12 -41 -3 -37 -6 -42
-30 -45 -27 -3 -28 -1 -28 48 0 42 3 49 16 44 9 -3 22 -6 30 -6z m9 -186 c6
-79 3 -106 -10 -92 -11 11 -18 178 -8 178 6 0 14 -38 18 -86z m4419 34 c-11
-113 -16 -138 -25 -132 -10 6 -3 158 8 177 13 22 21 0 17 -45z m-4349 -182 c8
-61 5 -88 -11 -93 -7 -2 -9 8 -6 27 4 26 -1 53 -24 145 -5 18 -3 18 15 -3 11
-13 22 -45 26 -76z m4290 65 c-8 -17 -16 -59 -17 -95 -2 -68 -13 -86 -24 -40
-8 30 11 131 27 150 21 25 30 15 14 -15z m-4399 -49 c-1 -50 4 -75 17 -96 23
-34 12 -49 -13 -18 -21 25 -36 118 -26 157 12 46 22 26 22 -43z m4488 -16 c0
-65 -3 -80 -22 -98 -27 -28 -42 -16 -16 13 15 17 19 36 19 95 0 45 4 73 10 71
6 -2 10 -38 9 -81z m-4438 35 c9 16 22 -14 23 -53 1 -22 -4 -28 -19 -28 -12 0
-20 -7 -21 -17 -1 -37 -18 21 -18 66 -1 36 1 42 13 32 11 -9 16 -9 22 0z
m4401 0 c15 13 15 10 9 -36 -7 -45 -26 -87 -26 -57 0 7 -9 12 -20 12 -21 0
-24 9 -14 59 5 25 9 29 20 20 11 -9 18 -8 31 2z m-4373 -168 c3 -38 9 -78 12
-90 5 -16 2 -23 -8 -23 -15 0 -28 73 -28 151 0 56 17 28 24 -38z m4346 52 c0
-34 -34 -165 -43 -165 -9 0 -7 21 14 128 9 47 29 73 29 37z m-4277 -157 c21
-45 31 -102 23 -134 -10 -38 -21 -20 -23 37 -1 28 -10 68 -21 90 -14 28 -16
39 -7 39 7 0 20 -15 28 -32z m4195 -7 c-10 -21 -21 -62 -23 -91 -4 -60 -11
-73 -21 -36 -6 25 10 115 28 149 5 9 15 17 22 17 10 0 9 -9 -6 -39z m-4292 5
c-8 -32 12 -122 31 -141 8 -8 13 -20 11 -27 -9 -26 -45 31 -57 89 -10 46 -10
65 -2 82 16 28 25 27 17 -3z m4390 -3 c10 -38 -12 -133 -36 -157 -29 -30 -34
-14 -8 30 16 27 22 54 23 96 0 62 10 76 21 31z m-4311 -63 c5 -31 3 -36 -19
-46 -24 -11 -26 -10 -36 25 -14 51 -13 61 10 61 11 0 20 6 20 13 1 21 18 -15
25 -53z m4263 34 c15 9 16 -33 1 -71 -7 -20 -12 -24 -19 -14 -4 8 -15 11 -24
8 -19 -8 -21 11 -5 66 9 35 12 37 23 21 7 -9 18 -14 24 -10z m-4243 -184 c19
-78 19 -78 8 -82 -9 -4 -43 110 -43 147 0 46 16 17 35 -65z m4215 83 c0 -5 -4
-24 -9 -43 -6 -19 -15 -54 -21 -77 -13 -51 -35 -59 -25 -10 14 70 36 137 45
137 6 0 10 -3 10 -7z m-4157 -140 c21 -24 50 -128 42 -153 -11 -33 -22 -14
-28 47 -4 34 -14 68 -26 84 -12 16 -21 31 -21 34 0 11 17 4 33 -12z m4087 10
c0 -3 -7 -14 -15 -23 -16 -18 -47 -128 -40 -141 3 -4 1 -10 -4 -13 -30 -19 -7
130 26 166 16 18 33 24 33 11z m-4172 -35 c-1 -47 11 -98 33 -135 10 -18 15
-33 10 -33 -34 0 -79 128 -61 174 13 35 20 33 18 -6z m4248 -4 c8 -30 -22
-139 -43 -156 -25 -20 -26 0 -2 48 13 27 22 66 22 91 0 48 13 57 23 17z
m-4167 -61 c1 -13 -8 -32 -19 -43 l-20 -20 -9 22 c-5 13 -12 38 -16 56 -6 31
-5 33 13 28 12 -4 24 -2 28 5 9 15 22 -13 23 -48z m4125 13 c-9 -42 -26 -74
-32 -58 -2 6 -12 12 -22 12 -16 0 -17 4 -8 38 8 34 13 39 39 39 28 0 29 -2 23
-31z m-4101 -136 c21 -75 24 -97 13 -99 -15 -3 -60 152 -48 164 10 9 19 -8 35
-65z m4057 59 c0 -7 -12 -47 -26 -90 -19 -57 -29 -76 -40 -72 -9 3 -11 10 -6
17 5 6 14 31 21 56 18 66 32 100 42 100 5 0 9 -5 9 -11z m-3987 -137 c35 -39
60 -153 37 -167 -6 -4 -10 8 -10 30 0 39 -37 135 -51 135 -5 0 -9 5 -9 10 0
16 15 12 33 -8z m3879 -34 c-14 -29 -27 -72 -30 -95 -5 -44 -22 -50 -22 -9 0
29 25 102 46 133 27 42 31 23 6 -29z m-3965 17 c-9 -22 17 -109 41 -140 25
-32 23 -42 -7 -26 -13 7 -28 35 -41 78 -20 65 -19 103 2 103 5 0 8 -7 5 -15z
m4067 -9 c8 -31 -20 -122 -45 -147 -24 -24 -48 -26 -26 -1 26 28 47 88 47 132
0 44 14 54 24 16z m-3989 -32 c17 -41 20 -68 6 -60 -5 3 -15 -1 -22 -10 -11
-14 -14 -13 -25 8 -18 32 -17 55 4 77 9 11 18 20 19 20 2 1 10 -15 18 -35z
m3929 10 c9 -3 16 -16 16 -28 -1 -23 -29 -79 -30 -58 0 6 -9 12 -20 12 -23 0
-24 3 -8 47 13 34 16 37 42 27z m-3891 -171 c28 -80 34 -115 18 -97 -9 9 -61
151 -61 166 0 4 4 8 8 8 5 0 21 -35 35 -77z m3857 63 c0 -22 -42 -129 -57
-146 -21 -23 -17 4 14 87 26 68 43 92 43 59z m-3796 -112 c37 -14 88 -174 56
-174 -10 0 -14 15 -11 34 4 18 -30 94 -49 111 -30 27 -27 41 4 29z m3702 -16
c-24 -34 -46 -87 -46 -112 0 -11 -4 -27 -9 -35 -7 -11 -10 -9 -16 9 -13 40 46
160 78 160 5 0 2 -10 -7 -22z m-3746 -132 c12 -20 26 -36 31 -36 5 0 9 -4 9
-10 0 -22 -32 -8 -50 23 -30 48 -44 101 -35 134 8 26 9 24 16 -24 3 -29 17
-68 29 -87z m3830 90 c0 -61 -46 -146 -78 -146 -12 0 -11 5 5 23 29 30 53 92
53 134 0 20 4 32 10 28 6 -3 10 -21 10 -39z m-3815 -6 c12 19 26 10 41 -25 17
-43 17 -45 -1 -45 -7 0 -18 -7 -23 -16 -7 -13 -13 -7 -27 27 -31 79 -31 75
-13 61 11 -9 18 -10 23 -2z m3782 -4 c1 -1 -7 -21 -17 -44 -18 -39 -21 -42
-40 -30 -22 14 -26 39 -10 69 8 15 17 18 38 13 15 -4 28 -7 29 -8z m-3699
-157 c46 -98 35 -124 -11 -29 -21 41 -37 80 -37 87 0 30 17 9 48 -58z m3632
57 c0 -18 -44 -116 -64 -141 -27 -35 -19 7 17 84 31 67 47 87 47 57z m-3529
-149 c30 -50 45 -105 31 -119 -9 -9 -12 -7 -12 8 0 26 -43 116 -63 133 -10 7
-17 18 -17 23 0 17 41 -13 61 -45z m3427 26 c-28 -29 -68 -113 -68 -141 0 -12
-3 -13 -11 -5 -26 26 53 173 92 173 7 0 1 -12 -13 -27z m-3513 -112 c8 -17 24
-37 35 -44 20 -12 28 -37 12 -37 -26 0 -92 110 -92 153 0 41 15 40 22 -1 4
-22 14 -54 23 -71z m3595 70 c0 -41 -46 -126 -76 -139 -39 -18 -40 -15 -6 21
35 36 62 94 62 132 0 15 4 24 10 20 6 -3 10 -19 10 -34z m-3523 -70 c-7 -2
-17 -10 -23 -17 -10 -12 -14 -11 -26 8 -8 13 -19 34 -23 47 -6 19 -4 23 8 18
11 -4 18 1 23 15 6 20 9 17 29 -23 16 -29 19 -45 12 -48z m3468 55 c19 8 19 3
-2 -41 -19 -39 -20 -40 -47 -20 -19 14 -19 16 -2 52 15 32 19 35 27 21 5 -10
16 -15 24 -12z m-3421 -146 c20 -39 36 -78 34 -88 -4 -18 -88 121 -88 146 0
28 18 8 54 -58z m3367 57 c-1 -15 -71 -146 -81 -152 -5 -3 -10 1 -10 10 0 23
73 156 83 152 5 -1 8 -6 8 -10z m-3262 -138 c36 -49 57 -107 44 -120 -5 -5
-16 11 -27 41 -10 28 -31 64 -47 80 -33 32 -35 40 -14 40 8 0 28 -18 44 -41z
m3161 37 c0 -3 -14 -20 -30 -38 -17 -18 -39 -55 -49 -83 -15 -38 -21 -46 -26
-32 -9 21 40 123 69 143 20 14 36 18 36 10z m-3241 -125 c12 -24 31 -45 41
-48 20 -5 36 -33 19 -33 -36 0 -109 98 -109 146 0 33 14 38 21 7 3 -15 16 -48
28 -72z m67 37 c13 -26 13 -29 -7 -49 -11 -11 -22 -19 -23 -17 -1 2 -12 19
-23 40 -21 35 -21 36 -2 41 10 3 19 13 19 24 0 20 8 12 36 -39z m3241 17 c-6
-38 -51 -112 -79 -129 -29 -18 -34 4 -6 27 33 29 71 94 65 111 -6 15 1 26 16
26 5 0 7 -15 4 -35z m-49 -1 c18 11 15 -3 -9 -40 -23 -38 -26 -39 -52 -20 -16
12 -17 18 -6 38 23 44 30 50 44 32 6 -10 17 -14 23 -10z m-3147 -116 c40 -55
61 -97 57 -110 -4 -12 -66 69 -92 121 -24 45 -1 38 35 -11z m3089 36 c0 -11
-104 -154 -112 -154 -13 0 -10 8 40 85 26 41 53 75 60 75 6 0 12 -3 12 -6z
m-2969 -121 c32 -35 54 -71 61 -100 10 -39 -10 -35 -22 3 -7 21 -32 57 -56 81
-32 32 -39 43 -26 43 10 0 30 -12 43 -27z m2815 -16 c-24 -24 -49 -60 -55 -80
-14 -43 -37 -51 -26 -10 12 51 78 133 106 133 14 0 7 -11 -25 -43z m-2916 -12
c0 -26 62 -116 86 -126 32 -11 31 -28 -1 -21 -45 8 -136 162 -96 162 6 0 11
-7 11 -15z m96 -24 l26 -39 -22 -22 c-12 -12 -23 -20 -24 -18 -25 34 -46 67
-46 72 0 3 7 6 15 6 8 0 15 9 15 20 0 29 6 25 36 -19z m2920 8 c-11 -58 -98
-153 -119 -132 -3 2 15 23 39 45 27 24 49 56 56 79 13 47 33 53 24 8z m-66 1
c22 -22 20 -31 -12 -67 -20 -21 -20 -21 -40 -1 -19 19 -19 20 4 54 13 18 24
34 26 34 1 0 11 -9 22 -20z m-2770 -145 c49 -58 58 -75 42 -75 -16 0 -112 115
-112 135 0 16 22 -4 70 -60z m2710 55 c0 -14 -71 -105 -93 -119 -37 -24 -28 0
23 64 51 62 70 77 70 55z m-2596 -110 c45 -41 72 -89 64 -112 -3 -7 -14 5 -26
28 -20 40 -83 104 -102 104 -6 0 -10 5 -10 10 0 21 32 8 74 -30z m2486 30 c0
-5 -4 -10 -10 -10 -19 0 -82 -64 -102 -104 -23 -45 -37 -33 -18 14 23 55 130
137 130 100z m-2590 -59 c0 -26 75 -108 107 -116 19 -4 23 -9 14 -14 -23 -14
-49 -1 -96 50 -29 31 -45 57 -45 74 0 14 5 25 10 25 6 0 10 -8 10 -19z m2589
-13 c10 -3 5 -14 -19 -41 -29 -33 -61 -52 -45 -27 3 5 0 18 -7 29 -10 17 -9
24 11 45 20 21 26 23 35 12 6 -8 17 -16 25 -18z m51 7 c0 -35 -84 -125 -116
-125 -13 0 -24 5 -24 10 0 6 8 10 18 10 22 0 87 66 101 103 13 34 21 35 21 2z
m-2539 -11 c22 -23 23 -26 6 -35 -9 -6 -17 -17 -17 -26 0 -13 -3 -13 -15 -3
-21 18 -62 76 -47 66 7 -4 15 -1 18 8 9 23 27 20 55 -10z m70 -100 c68 -63 85
-84 68 -84 -17 0 -129 104 -129 120 0 17 13 10 61 -36z m2339 37 c0 -16 -124
-133 -128 -121 -3 7 22 39 54 71 56 57 74 69 74 50z m-120 -71 c0 -6 -12 -15
-27 -21 -39 -15 -93 -57 -93 -73 0 -8 -7 -19 -15 -26 -13 -10 -15 -9 -15 12 0
29 51 81 100 102 42 18 50 19 50 6z m-2073 -29 c43 -31 73 -67 73 -88 0 -23
-14 -13 -43 28 -15 22 -43 47 -62 55 -40 16 -54 34 -27 34 10 0 37 -13 59 -29z
m-107 -34 c0 -19 66 -83 101 -97 37 -16 38 -34 2 -25 -26 6 -66 36 -105 78
-19 21 -24 57 -8 57 6 0 10 -6 10 -13z m104 -14 c18 -18 23 -29 15 -34 -6 -3
-15 -12 -19 -19 -5 -9 -17 -4 -40 18 -30 26 -32 31 -19 45 20 23 32 21 63 -10z
m2055 8 c8 -14 4 -24 -17 -45 -32 -30 -42 -32 -42 -11 0 8 -4 15 -10 15 -16 0
-12 18 10 40 25 25 46 26 59 1z m15 -68 c-35 -31 -57 -42 -79 -42 l-30 1 25
11 c44 21 91 61 108 92 l16 30 4 -25 c3 -19 -6 -34 -44 -67z m-1941 -65 c44
-36 29 -44 -20 -11 -70 49 -95 72 -88 83 6 10 17 3 108 -72z m1848 58 c-23
-28 -130 -96 -136 -87 -7 12 112 101 133 101 11 0 12 -3 3 -14z m-1763 -45
c49 -25 92 -66 92 -87 0 -12 -12 -5 -44 24 -25 23 -57 44 -73 48 -37 9 -44 14
-38 25 9 13 21 11 63 -10z m1630 8 c-2 -6 -22 -17 -43 -25 -22 -7 -52 -28 -67
-45 -28 -33 -52 -33 -32 -1 26 43 154 107 142 71z m-24 -44 c-4 -8 1 -17 10
-21 24 -9 20 -18 -23 -42 -45 -26 -52 -27 -45 -8 3 8 1 17 -5 21 -19 11 -12
24 27 44 20 11 38 20 39 21 1 0 0 -7 -3 -15z m-1604 -10 c33 -17 34 -21 17
-52 l-12 -22 -32 20 c-29 18 -31 23 -21 45 13 28 11 28 48 9z m-29 -72 c13 -7
38 -18 54 -25 l30 -12 -27 -4 c-43 -5 -138 60 -138 96 0 8 11 2 28 -15 16 -15
40 -34 53 -40z m1699 47 c0 -25 -95 -90 -132 -90 -16 0 -28 5 -28 10 0 6 10
10 22 10 28 0 105 45 118 70 14 25 20 25 20 0z m-1551 -67 c47 -22 69 -38 59
-40 -21 -5 -148 52 -148 67 0 15 7 13 89 -27z m1411 30 c0 -14 -143 -84 -152
-75 -5 5 21 25 59 45 67 36 93 44 93 30z m-1248 -46 c20 -8 42 -25 48 -37 16
-29 3 -39 -15 -13 -14 21 -67 44 -130 58 -26 6 -28 8 -10 15 21 8 48 2 107
-23z m1113 13 c-3 -5 -20 -10 -36 -10 -37 0 -88 -25 -111 -54 -10 -11 -18 -16
-18 -9 0 27 16 47 54 64 44 20 122 26 111 9z m-1142 -41 c12 -6 31 -19 42 -29
11 -10 50 -27 88 -40 37 -12 67 -26 67 -31 0 -13 -5 -12 -90 15 -56 17 -75 27
-74 40 1 9 -3 15 -10 13 -6 -2 -10 -12 -10 -21 2 -20 2 -20 -41 -2 -39 17 -40
18 -23 46 15 23 21 24 51 9z m1102 1 c-3 -6 1 -13 10 -16 21 -8 4 -29 -36 -43
-23 -8 -29 -7 -29 4 0 8 -7 18 -17 23 -14 8 -12 12 13 25 33 18 68 22 59 7z
m-1196 -29 c13 -24 92 -61 131 -61 18 0 29 -4 25 -10 -24 -39 -185 32 -185 82
0 15 19 8 29 -11z m1256 -21 c-38 -42 -144 -75 -160 -50 -4 6 6 10 22 10 36 1
103 31 128 59 11 13 21 18 23 11 2 -6 -4 -20 -13 -30z m-883 0 c37 -11 74 -38
64 -47 -3 -3 -26 5 -51 17 -35 17 -56 21 -86 16 -22 -3 -39 -2 -39 3 0 21 55
26 112 11z m592 4 c30 -12 16 -19 -38 -20 -33 0 -64 -7 -80 -17 -36 -24 -55
-21 -29 4 29 29 110 47 147 33z m156 -13 c0 -4 -21 -13 -47 -20 -27 -6 -64
-16 -83 -21 -22 -6 -36 -6 -38 0 -8 22 -24 9 -18 -14 5 -19 1 -25 -17 -30 -30
-8 -62 -8 -54 1 4 3 2 12 -5 20 -19 23 4 35 84 44 40 4 93 14 118 22 44 14 60
14 60 -2z m-747 -33 c11 -9 15 -21 10 -37 -5 -20 -10 -22 -41 -18 -43 7 -41 6
-35 40 6 30 36 37 66 15z m326 -1 c14 -18 2 -30 -16 -15 -9 7 -38 9 -86 5 -65
-6 -70 -5 -53 8 26 19 139 21 155 2z m-426 -41 c7 -18 105 -39 143 -31 28 6
28 6 9 -10 -39 -32 -168 -2 -183 43 -5 17 25 15 31 -2z m381 2 c-3 -5 0 -15 6
-23 15 -18 -5 -28 -47 -23 -22 2 -28 8 -27 26 1 25 -14 30 -22 7 -4 -9 -15
-13 -28 -10 -11 2 -47 7 -78 10 -99 11 -64 21 72 22 77 0 127 -3 124 -9z m186
2 c8 -5 13 -10 10 -11 -47 -8 -170 -9 -170 -1 0 18 136 27 160 12z m160 1 c0
-32 -111 -70 -164 -57 -44 11 -29 23 27 22 53 0 117 19 117 35 0 5 5 9 10 9 6
0 10 -4 10 -9z m-407 -65 c30 -8 47 -7 82 5 33 12 42 13 38 3 -12 -33 -122
-41 -174 -13 -24 12 -25 34 -1 24 9 -4 34 -13 55 -19z"/>
<path d="M1611 6323 c302 -333 589 -625 719 -734 260 -216 453 -279 856 -279
218 0 358 18 488 61 183 61 305 148 570 409 178 175 512 526 529 556 6 11 1
14 -21 14 -24 0 -51 -25 -173 -157 -199 -217 -458 -478 -554 -557 -263 -221
-435 -279 -830 -279 -490 -1 -658 77 -1084 504 -96 96 -239 245 -319 332 -126
137 -149 157 -175 157 l-31 0 25 -27z"/>
<path d="M1916 5145 c8 -91 79 -441 125 -614 55 -209 148 -493 224 -682 65
-161 166 -382 171 -376 2 2 -17 55 -42 118 -76 192 -174 465 -230 640 -88 276
-131 440 -243 929 -10 44 -10 44 -5 -15z"/>
<path d="M4432 5095 c-101 -484 -277 -1066 -458 -1507 -25 -61 -43 -112 -41
-114 7 -7 113 225 180 396 148 377 258 773 327 1179 27 159 22 189 -8 46z"/>
<path d="M2910 2855 c0 -3 14 -33 30 -66 117 -231 355 -240 483 -17 42 73 42
97 0 33 -72 -110 -145 -159 -238 -160 -48 0 -69 6 -107 27 -52 31 -110 93
-139 151 -17 33 -29 46 -29 32z"/>
</g>
</svg>
