<?xml version="1.0" standalone="no"?>
<!DOCTYPE svg PUBLIC "-//W3C//DTD SVG 20010904//EN"
 "http://www.w3.org/TR/2001/REC-SVG-20010904/DTD/svg10.dtd">
<svg version="1.0" xmlns="http://www.w3.org/2000/svg"
 width="1024.000000pt" height="1024.000000pt" viewBox="0 0 1024.000000 1024.000000"
 preserveAspectRatio="xMidYMid meet">

<g transform="translate(0.000000,1024.000000) scale(0.100000,-0.100000)"
fill="#000000" stroke="none">
<path d="M2140 9878 c0 -361 -20 -886 -41 -1048 -28 -222 -47 -291 -124 -435
-73 -136 -148 -233 -225 -291 -46 -35 -81 -73 -120 -132 -61 -92 -116 -141
-235 -211 -44 -27 -121 -74 -170 -106 -50 -32 -145 -87 -213 -121 -68 -35
-182 -97 -255 -138 -73 -42 -148 -81 -167 -87 -19 -7 -93 -44 -165 -82 -169
-90 -261 -138 -312 -161 -23 -10 -58 -32 -77 -48 -29 -23 -36 -37 -36 -64 0
-19 2 -34 5 -34 3 0 40 20 83 44 42 24 160 85 262 135 102 51 225 114 273 141
48 26 106 55 128 64 22 9 89 44 147 78 59 34 148 83 199 109 97 51 261 151
377 231 38 26 71 46 73 44 2 -2 -3 -30 -11 -62 -21 -82 -46 -311 -46 -419 0
-49 7 -164 15 -255 40 -459 197 -1031 464 -1697 24 -62 36 -59 -126 -38 -252
32 -361 44 -453 50 -155 10 -638 76 -905 125 -488 89 -485 88 -485 68 0 -9 21
-21 52 -31 62 -19 323 -76 488 -106 63 -12 133 -26 155 -31 22 -5 96 -14 165
-20 164 -15 430 -46 605 -70 77 -11 219 -29 315 -40 96 -12 189 -23 206 -26
30 -5 35 -15 104 -167 140 -311 339 -692 455 -872 18 -27 61 -95 97 -150 316
-491 770 -967 1188 -1247 116 -77 418 -230 550 -278 116 -43 314 -96 435 -116
125 -22 489 -25 610 -6 272 44 548 143 825 296 130 73 188 110 315 205 220
166 321 256 499 446 435 466 817 1064 1111 1740 31 72 60 133 64 138 4 4 81
16 172 27 90 11 218 27 284 35 66 8 224 28 350 44 127 16 268 33 315 36 47 4
108 11 135 16 28 6 131 23 230 40 99 16 209 37 245 45 54 12 259 54 268 54 1
0 2 11 2 25 0 16 -6 25 -16 25 -8 0 -91 -15 -182 -34 -307 -64 -952 -158
-1162 -171 -99 -6 -319 -30 -513 -56 -48 -6 -90 -9 -93 -7 -3 3 11 43 30 89
103 250 236 643 307 910 95 355 135 585 148 851 12 237 1 394 -39 566 -11 46
-20 85 -20 88 0 2 28 -15 63 -39 34 -23 94 -62 132 -86 39 -24 88 -56 110 -71
22 -15 74 -44 115 -65 41 -21 111 -59 155 -85 156 -91 225 -129 262 -141 21
-7 61 -24 88 -39 28 -16 108 -60 179 -99 71 -39 143 -75 160 -81 17 -6 60 -27
96 -45 119 -63 151 -77 166 -71 42 16 -21 80 -130 131 -39 18 -116 58 -171 89
-55 32 -134 73 -175 92 -122 57 -232 115 -287 151 -28 18 -78 46 -110 61 -85
41 -232 121 -280 154 -24 16 -82 51 -130 79 -48 28 -129 80 -179 115 -75 52
-96 72 -115 111 -13 29 -55 79 -105 128 -86 83 -235 283 -278 370 -13 28 -38
95 -56 150 -27 86 -33 122 -41 260 -4 88 -13 230 -19 315 -5 85 -12 346 -15
580 -4 234 -8 440 -11 458 -4 27 -9 33 -27 30 -43 -6 -49 -66 -43 -473 8 -579
42 -1134 92 -1515 9 -63 20 -155 25 -205 11 -107 34 -239 56 -315 31 -106 85
-265 95 -275 6 -6 7 -5 4 5 -6 15 -42 206 -76 405 -20 113 -70 484 -70 517 0
11 4 17 9 13 11 -6 148 -207 200 -292 18 -30 80 -103 136 -162 96 -99 106
-113 129 -182 81 -245 81 -686 0 -1088 -44 -218 -132 -548 -204 -761 -74 -223
-183 -515 -221 -595 l-24 -50 -145 -17 c-80 -9 -264 -37 -410 -63 -146 -25
-310 -53 -365 -62 -154 -24 -340 -71 -447 -114 -149 -59 -340 -155 -383 -192
-22 -19 -69 -58 -105 -86 -111 -89 -130 -106 -130 -115 0 -5 -8 -19 -19 -30
-10 -12 -27 -34 -37 -51 l-19 -29 21 14 c12 8 45 41 74 73 29 32 83 78 119
102 36 24 84 57 106 73 66 48 212 120 298 147 45 14 95 32 111 40 17 8 71 26
119 40 49 13 92 27 95 29 19 11 384 78 499 91 72 8 138 17 145 20 17 7 442 64
446 60 1 -1 -33 -83 -77 -181 -399 -899 -961 -1653 -1563 -2097 -325 -239
-675 -402 -1015 -472 -211 -44 -535 -49 -730 -11 -246 47 -401 100 -648 221
-591 289 -1138 843 -1615 1635 -145 240 -466 887 -449 904 2 3 65 -4 139 -15
340 -48 423 -60 538 -74 405 -50 888 -210 1054 -350 20 -17 65 -48 100 -68 35
-20 89 -62 122 -92 32 -30 63 -55 68 -55 5 0 -13 26 -39 59 -51 62 -277 249
-340 280 -175 87 -317 147 -398 168 -11 3 -58 16 -105 30 -47 13 -119 28 -160
34 -41 5 -118 18 -170 29 -171 34 -497 87 -753 121 l-89 11 -34 77 c-48 103
-190 499 -252 701 -206 664 -269 1208 -186 1608 28 138 46 170 128 240 40 35
91 88 112 118 22 30 62 85 89 122 92 123 124 170 150 222 15 29 29 50 31 47 3
-2 1 -33 -5 -68 -5 -35 -13 -111 -16 -169 -6 -103 -31 -283 -61 -430 -25 -124
-44 -234 -43 -255 2 -66 84 206 104 345 7 47 27 180 44 295 67 458 96 891 107
1643 8 494 10 472 -48 472 l-28 0 0 -362z"/>
<path d="M2606 10185 c26 -30 51 -55 56 -55 4 0 26 -24 49 -52 77 -99 685
-733 824 -859 22 -20 65 -62 95 -94 30 -31 73 -68 94 -82 22 -14 60 -44 85
-67 66 -60 131 -110 171 -132 19 -10 42 -24 50 -31 59 -46 344 -171 440 -192
139 -31 352 -46 655 -46 355 0 583 19 725 61 101 30 319 127 374 166 21 15 43
28 49 28 14 0 134 91 192 146 28 26 62 55 78 64 22 14 250 226 292 272 6 6 66
68 135 139 69 71 134 138 145 150 11 12 54 56 96 98 118 118 283 291 329 344
22 27 70 78 105 113 36 35 65 68 65 74 0 5 -15 10 -34 10 -39 0 -101 -45 -181
-131 -27 -30 -102 -110 -165 -179 -122 -133 -151 -163 -442 -457 -265 -267
-376 -369 -515 -475 -191 -146 -207 -157 -249 -172 -22 -7 -67 -27 -100 -44
-225 -114 -546 -156 -1070 -141 -321 10 -525 53 -724 154 -37 19 -74 35 -81
35 -8 0 -25 9 -39 20 -14 11 -29 20 -34 20 -5 0 -26 15 -46 33 -21 17 -71 55
-110 82 -40 28 -123 95 -184 150 -133 119 -565 550 -726 725 -163 176 -341
355 -367 369 -12 6 -36 11 -53 11 l-31 0 47 -55z"/>
<path d="M7167 8310 c-31 -114 -78 -327 -87 -395 -5 -38 -21 -110 -35 -160
-15 -49 -35 -121 -45 -160 -10 -38 -43 -155 -73 -260 -30 -104 -60 -214 -66
-243 -12 -58 -111 -367 -141 -442 -17 -45 -51 -149 -85 -265 -18 -60 -98 -272
-160 -420 -19 -44 -37 -93 -41 -110 -4 -16 -24 -72 -46 -124 -21 -52 -37 -99
-35 -105 4 -11 56 91 102 204 15 36 40 90 55 120 50 100 130 296 145 355 9 32
29 88 45 126 47 105 153 421 188 559 13 47 38 139 58 205 71 239 115 412 134
530 10 66 30 174 44 240 57 276 85 495 43 345z"/>
<path d="M3090 8309 c0 -19 11 -93 25 -164 14 -72 32 -179 40 -240 9 -60 27
-157 41 -215 14 -58 36 -152 50 -210 13 -58 36 -141 49 -185 35 -115 72 -248
94 -340 11 -44 38 -132 61 -195 23 -63 45 -126 50 -140 4 -14 23 -63 40 -110
18 -47 40 -114 50 -150 9 -36 31 -94 48 -130 68 -146 135 -299 158 -360 34
-95 126 -274 118 -230 -4 19 -24 74 -44 121 -21 47 -48 117 -59 155 -19 61
-46 134 -126 339 -13 33 -39 102 -59 152 -20 51 -36 101 -36 111 0 11 -30 102
-66 203 -87 244 -123 359 -140 444 -14 65 -33 138 -83 310 -37 127 -139 549
-146 600 -6 53 -54 257 -61 264 -2 2 -4 -11 -4 -30z"/>
<path d="M4690 4601 c0 -20 50 -113 95 -176 49 -69 151 -170 180 -178 100 -28
163 -38 204 -32 76 12 157 41 195 71 54 42 175 198 191 247 l14 42 -27 -35
c-65 -82 -209 -221 -250 -241 -24 -12 -78 -26 -121 -32 -69 -9 -84 -8 -146 13
-64 21 -78 31 -166 119 -53 55 -105 117 -118 143 -23 48 -51 80 -51 59z"/>
</g>
</svg>
