<?xml version="1.0" standalone="no"?>
<!DOCTYPE svg PUBLIC "-//W3C//DTD SVG 20010904//EN"
 "http://www.w3.org/TR/2001/REC-SVG-20010904/DTD/svg10.dtd">
<svg version="1.0" xmlns="http://www.w3.org/2000/svg"
 width="688.000000pt" height="688.000000pt" viewBox="0 0 688.000000 688.000000"
 preserveAspectRatio="xMidYMid meet">

<g transform="translate(0.000000,688.000000) scale(0.100000,-0.100000)"
fill="#000000" stroke="none">
<path d="M1652 6728 c-41 -282 -96 -483 -181 -664 -45 -94 -51 -102 -95 -123
-71 -35 -157 -127 -199 -214 -20 -41 -52 -88 -72 -106 -96 -84 -344 -234 -605
-368 -181 -92 -454 -223 -465 -223 -3 0 -8 18 -11 40 -13 81 -24 36 -24 -99 0
-311 94 -780 246 -1222 239 -698 808 -1914 1143 -2444 258 -408 561 -780 916
-1123 178 -171 195 -185 225 -180 18 2 1 21 -89 102 -399 356 -781 826 -1097
1347 -316 521 -866 1718 -1068 2324 -140 419 -233 861 -239 1135 l-2 103 153
63 c341 140 709 339 907 490 l34 26 -9 -33 c-5 -18 -15 -89 -21 -159 -19 -214
12 -531 87 -904 19 -93 33 -170 31 -172 -3 -4 -354 77 -610 141 -126 31 -231
55 -233 52 -10 -10 565 -163 781 -208 33 -7 63 -15 68 -19 4 -4 23 -67 43
-141 323 -1231 949 -2306 1594 -2736 436 -292 865 -248 1319 132 568 477 1119
1482 1406 2563 42 155 52 183 69 187 267 59 859 216 839 222 -6 2 -102 -19
-214 -47 -228 -58 -632 -151 -636 -147 -1 2 15 89 37 195 78 386 107 747 76
951 -9 58 -16 108 -16 112 0 5 37 -19 83 -51 231 -166 498 -303 996 -511 23
-10 23 -11 17 -102 -33 -433 -140 -876 -338 -1402 -226 -598 -702 -1610 -960
-2038 -199 -331 -476 -712 -682 -937 -159 -174 -378 -392 -500 -498 l-49 -42
30 0 c58 0 441 380 695 690 316 384 544 746 827 1310 363 726 643 1376 801
1865 123 382 205 819 213 1135 2 93 0 105 -15 108 -15 3 -18 -4 -18 -37 0 -23
-3 -41 -7 -41 -17 0 -547 262 -668 329 -136 77 -357 219 -414 267 -19 15 -46
55 -61 88 -39 88 -102 161 -181 212 -78 51 -97 81 -164 259 -64 172 -145 542
-145 664 0 17 -4 31 -10 31 -29 0 10 -309 65 -527 64 -250 172 -461 312 -613
40 -43 78 -91 83 -106 46 -120 62 -394 36 -624 -19 -170 -67 -463 -100 -605
-22 -99 -23 -100 -57 -107 -93 -20 -416 -71 -594 -93 -343 -43 -511 -82 -680
-160 -92 -41 -207 -119 -276 -185 l-54 -52 55 44 c133 108 247 171 403 223
120 40 248 64 567 105 129 17 312 44 407 60 94 17 176 30 183 30 16 0 6 -43
-56 -260 -273 -950 -709 -1772 -1209 -2276 -261 -263 -486 -396 -735 -435
-385 -60 -819 207 -1234 759 -405 539 -738 1253 -957 2054 -23 82 -38 152 -35
155 3 4 90 -8 193 -26 104 -17 276 -43 383 -57 581 -74 751 -132 1010 -342
l55 -45 -55 52 c-78 73 -233 175 -321 211 -171 71 -323 104 -689 150 -234 29
-573 89 -587 103 -14 14 -74 313 -102 512 -42 294 -49 508 -22 676 19 116 30
139 100 213 199 211 318 480 380 862 24 148 37 304 25 304 -5 0 -19 -69 -32
-152z m-261 -815 c-5 -10 -37 -45 -71 -78 -103 -100 -149 -220 -171 -442 -24
-249 38 -714 163 -1208 59 -235 199 -663 291 -891 375 -923 906 -1647 1395
-1902 275 -143 513 -156 783 -41 527 224 1113 1008 1506 2014 269 688 454
1544 429 1980 -13 231 -63 378 -162 482 -31 32 -63 69 -72 82 -16 24 -16 24 8
11 40 -21 117 -99 151 -151 69 -108 109 -290 109 -499 0 -171 -14 -318 -55
-565 -141 -852 -487 -1764 -923 -2430 -497 -760 -1022 -1118 -1499 -1019 -246
51 -461 181 -714 433 -455 455 -858 1165 -1139 2011 -182 546 -292 1081 -307
1495 -13 351 61 580 226 701 52 38 66 42 52 17z"/>
<path d="M4296 5832 c-103 -357 -226 -698 -355 -976 -23 -49 -39 -91 -37 -94
6 -5 113 207 167 331 64 144 173 478 229 697 28 111 49 204 47 206 -2 2 -25
-72 -51 -164z"/>
</g>
</svg>
